<svg id="Layer_1" data-name="Layer 1" xmlns="http://www.w3.org/2000/svg" viewBox="0 0 1200 1200"><defs><style>.cls-1{fill:#23355e;}.cls-2{fill:#e7e8ec;}.cls-3{fill:#d3dc1b;}</style></defs><path class="cls-1" d="M1117.38,296.39a602.6,602.6,0,0,0-90.82-117.9C917.77,68.33,766.69,0,600,0,269.11,0,0,269.18,0,600a600.61,600.61,0,0,0,209.84,455.48c105,90,241.31,144.52,390.16,144.52,330.82,0,600-269.18,600-600A596.75,596.75,0,0,0,1117.38,296.39ZM131.15,600c0-258.49,210.29-468.85,468.85-468.85,146.56,0,277.7,67.67,363.74,173.37C806.16,582.89,551,799,245.05,906.1A467.21,467.21,0,0,1,131.15,600ZM600,1068.85a466,466,0,0,1-239.15-65.7c176.79-72.4,339.08-180,478.17-319.08a1475,1475,0,0,0,200-248.53A465.73,465.73,0,0,1,1068.85,600C1068.85,858.56,858.49,1068.85,600,1068.85Z"/><path class="cls-2" d="M1068.85,600c0,258.56-210.36,468.85-468.85,468.85a466,466,0,0,1-239.15-65.7c176.79-72.4,339.08-180,478.17-319.08a1475,1475,0,0,0,200-248.53A465.73,465.73,0,0,1,1068.85,600Z"/><path class="cls-3" d="M963.74,304.52C806.16,582.89,551,799,245.05,906.1A467.21,467.21,0,0,1,131.15,600c0-258.49,210.29-468.85,468.85-468.85C746.56,131.15,877.7,198.82,963.74,304.52Z"/></svg>