<svg id="Layer_1" data-name="Layer 1" xmlns="http://www.w3.org/2000/svg" viewBox="0 0 1200 265.21"><defs><style>.cls-1{fill:#23355e;}.cls-2{fill:#e7e8ec;}.cls-3{fill:#d3dc1b;}</style></defs><path class="cls-1" d="M247,65.51A133,133,0,0,0,132.61,0C59.48,0,0,59.49,0,132.61a132.75,132.75,0,0,0,132.61,132.6c73.11,0,132.6-59.49,132.6-132.6A131.79,131.79,0,0,0,247,65.51ZM29,132.61A103.58,103.58,0,0,1,213,67.3a295,295,0,0,1-158.84,133A103.25,103.25,0,0,1,29,132.61ZM132.61,236.23a103.05,103.05,0,0,1-52.86-14.52,322,322,0,0,0,105.68-70.52,325.7,325.7,0,0,0,44.2-54.93,103.59,103.59,0,0,1-97,140Z"/><path class="cls-2" d="M236.23,132.61a103.59,103.59,0,0,1-156.48,89.1,322,322,0,0,0,105.68-70.52,325.7,325.7,0,0,0,44.2-54.93A102.88,102.88,0,0,1,236.23,132.61Z"/><path class="cls-3" d="M213,67.3a295,295,0,0,1-158.84,133A103.58,103.58,0,1,1,213,67.3Z"/><path class="cls-1" d="M448.94,27.9H492.6V162q0,22.59-10.74,39.52t-30,26.37q-19.26,9.42-44.86,9.43t-45-9.43q-19.26-9.44-29.95-26.37T321.39,162V27.9h43.66V158.27a41.86,41.86,0,0,0,5.19,21,37.2,37.2,0,0,0,14.67,14.42q9.48,5.24,22.09,5.24t22.13-5.24a37.34,37.34,0,0,0,14.62-14.42,41.86,41.86,0,0,0,5.19-21Z"/><path class="cls-1" d="M618.38,122.48v37.45H514.89V122.48Z"/><path class="cls-1" d="M712.19,234.39H639V27.9h73.8q31.15,0,53.64,12.35a84.28,84.28,0,0,1,34.64,35.44q12.15,23.09,12.15,55.25T801.07,186.4A84.24,84.24,0,0,1,766.28,222Q743.65,234.4,712.19,234.39ZM682.65,197h27.72q19.36,0,32.62-6.9t20-21.48q6.7-14.57,6.7-37.66,0-22.89-6.7-37.4T743,72.16q-13.2-6.85-32.56-6.86H682.65Z"/><path class="cls-1" d="M871.8,237.32a63.89,63.89,0,0,1-26.42-5.2,41.75,41.75,0,0,1-18.3-15.42q-6.71-10.23-6.7-25.56,0-12.91,4.74-21.68A38.46,38.46,0,0,1,838,155.34a62.52,62.52,0,0,1,18.61-8.06,139.26,139.26,0,0,1,21.93-3.83q13.5-1.42,21.78-2.68t12-3.78a8.4,8.4,0,0,0,3.73-7.46v-.6q0-9.59-6-14.83t-17-5.24q-11.6,0-18.45,5.09a23.93,23.93,0,0,0-9.07,12.76l-39.73-3.23A54.42,54.42,0,0,1,837.72,99,57.65,57.65,0,0,1,860.66,83.1q14.07-5.59,32.62-5.6a99.53,99.53,0,0,1,24.75,3A65.18,65.18,0,0,1,939.1,89.9a45.93,45.93,0,0,1,14.57,16.29q5.34,9.93,5.35,23.74V234.39H918.28V212.92h-1.21a43.13,43.13,0,0,1-10,12.75,44.89,44.89,0,0,1-15,8.57A61.21,61.21,0,0,1,871.8,237.32Zm12.3-29.65a35.73,35.73,0,0,0,16.74-3.78,29.22,29.22,0,0,0,11.39-10.23A26.5,26.5,0,0,0,916.37,179V162.6a21.65,21.65,0,0,1-5.5,2.37,79.12,79.12,0,0,1-7.81,1.92c-2.89.57-5.79,1.07-8.67,1.51s-5.52.82-7.87,1.16a53,53,0,0,0-13.21,3.53,21.3,21.3,0,0,0-8.77,6.5,16.2,16.2,0,0,0-3.12,10.14q0,8.76,6.4,13.35T884.1,207.67Z"/><path class="cls-1" d="M1053.8,200.51l-4.64.86a33.54,33.54,0,0,1-6.05.55,20.46,20.46,0,0,1-7.61-1.3,10,10,0,0,1-5.1-4.59c-1.21-2.19-1.81-5.26-1.81-9.23v-75h29.14V79.52h-29.14V42.42H985.64v37.1H964.46v32.27h21.18v80.66q-.1,15.23,6.35,25.2a37.92,37.92,0,0,0,18.1,14.73q11.64,4.73,27.17,4.13a75.48,75.48,0,0,0,14.22-1.67q5.85-1.35,9.07-2.36Z"/><path class="cls-1" d="M1112.78,237.32a63.81,63.81,0,0,1-26.41-5.2,41.75,41.75,0,0,1-18.3-15.42q-6.71-10.23-6.71-25.56,0-12.91,4.74-21.68A38.4,38.4,0,0,1,1079,155.34a62.35,62.35,0,0,1,18.6-8.06,139.47,139.47,0,0,1,21.93-3.83q13.51-1.42,21.78-2.68t12-3.78a8.43,8.43,0,0,0,3.73-7.46v-.6q0-9.59-6-14.83t-17-5.24q-11.6,0-18.45,5.09a24,24,0,0,0-9.08,12.76l-39.72-3.23A54.31,54.31,0,0,1,1078.7,99a57.72,57.72,0,0,1,22.94-15.93q14.07-5.59,32.62-5.6a99.53,99.53,0,0,1,24.75,3,65.23,65.23,0,0,1,21.08,9.37,46,46,0,0,1,14.57,16.29q5.34,9.93,5.34,23.74V234.39h-40.73V212.92h-1.21a43.17,43.17,0,0,1-10,12.75,44.89,44.89,0,0,1-15,8.57A61.17,61.17,0,0,1,1112.78,237.32Zm12.31-29.65a35.72,35.72,0,0,0,16.73-3.78,29.22,29.22,0,0,0,11.39-10.23,26.5,26.5,0,0,0,4.14-14.62V162.6a21.65,21.65,0,0,1-5.5,2.37,78.43,78.43,0,0,1-7.81,1.92q-4.33.86-8.67,1.51c-2.89.44-5.51.82-7.86,1.16a52.93,52.93,0,0,0-13.22,3.53,21.37,21.37,0,0,0-8.77,6.5,16.2,16.2,0,0,0-3.12,10.14q0,8.76,6.4,13.35T1125.09,207.67Z"/></svg>