<svg xmlns="http://www.w3.org/2000/svg" xmlns:xlink="http://www.w3.org/1999/xlink" width="1080" zoomAndPan="magnify" viewBox="0 0 810 809.999993" height="1080" preserveAspectRatio="xMidYMid meet" version="1.0"><defs><clipPath id="56700afcef"><path d="M 54.105469 54.105469 L 756 54.105469 L 756 756 L 54.105469 756 Z M 54.105469 54.105469 " clip-rule="nonzero"/></clipPath></defs><g clip-path="url(#56700afcef)"><path fill="#9dcd5a" d="M 755.894531 405 C 755.894531 410.742188 755.753906 416.480469 755.46875 422.214844 C 755.1875 427.953125 754.765625 433.675781 754.203125 439.390625 C 753.640625 445.109375 752.9375 450.804688 752.09375 456.484375 C 751.253906 462.167969 750.269531 467.824219 749.152344 473.453125 C 748.03125 479.085938 746.773438 484.6875 745.378906 490.257812 C 743.980469 495.828125 742.449219 501.363281 740.785156 506.859375 C 739.117188 512.351562 737.316406 517.804688 735.382812 523.210938 C 733.445312 528.617188 731.378906 533.976562 729.183594 539.28125 C 726.984375 544.585938 724.660156 549.835938 722.203125 555.027344 C 719.75 560.21875 717.167969 565.34375 714.460938 570.410156 C 711.753906 575.472656 708.921875 580.46875 705.972656 585.394531 C 703.019531 590.320312 699.945312 595.171875 696.757812 599.945312 C 693.566406 604.71875 690.261719 609.414062 686.839844 614.027344 C 683.417969 618.640625 679.886719 623.164062 676.242188 627.605469 C 672.601562 632.042969 668.851562 636.390625 664.996094 640.644531 C 661.136719 644.898438 657.179688 649.058594 653.117188 653.117188 C 649.058594 657.179688 644.898438 661.136719 640.644531 664.996094 C 636.390625 668.851562 632.042969 672.601562 627.605469 676.242188 C 623.164062 679.886719 618.640625 683.417969 614.027344 686.839844 C 609.414062 690.261719 604.71875 693.566406 599.945312 696.757812 C 595.171875 699.949219 590.320312 703.019531 585.394531 705.972656 C 580.46875 708.921875 575.472656 711.753906 570.410156 714.460938 C 565.34375 717.167969 560.214844 719.75 555.027344 722.203125 C 549.835938 724.660156 544.585938 726.984375 539.28125 729.183594 C 533.976562 731.378906 528.617188 733.445312 523.210938 735.382812 C 517.804688 737.316406 512.351562 739.117188 506.859375 740.785156 C 501.363281 742.449219 495.828125 743.980469 490.257812 745.378906 C 484.6875 746.773438 479.085938 748.03125 473.453125 749.152344 C 467.824219 750.269531 462.167969 751.253906 456.484375 752.09375 C 450.804688 752.9375 445.105469 753.640625 439.390625 754.203125 C 433.675781 754.765625 427.953125 755.1875 422.214844 755.46875 C 416.480469 755.753906 410.742188 755.894531 405 755.894531 C 399.257812 755.894531 393.515625 755.753906 387.78125 755.46875 C 382.046875 755.1875 376.320312 754.765625 370.605469 754.203125 C 364.890625 753.640625 359.191406 752.9375 353.511719 752.09375 C 347.832031 751.253906 342.175781 750.269531 336.542969 749.152344 C 330.910156 748.03125 325.308594 746.773438 319.738281 745.378906 C 314.167969 743.980469 308.636719 742.449219 303.140625 740.785156 C 297.644531 739.117188 292.191406 737.316406 286.785156 735.382812 C 281.378906 733.445312 276.023438 731.378906 270.71875 729.183594 C 265.410156 726.984375 260.164062 724.660156 254.972656 722.203125 C 249.78125 719.75 244.652344 717.167969 239.589844 714.460938 C 234.523438 711.753906 229.527344 708.921875 224.601562 705.972656 C 219.675781 703.019531 214.828125 699.949219 210.050781 696.757812 C 205.277344 693.566406 200.582031 690.261719 195.972656 686.839844 C 191.359375 683.417969 186.832031 679.886719 182.394531 676.242188 C 177.953125 672.601562 173.609375 668.851562 169.351562 664.996094 C 165.097656 661.136719 160.941406 657.179688 156.878906 653.117188 C 152.816406 649.058594 148.859375 644.898438 145.003906 640.644531 C 141.148438 636.390625 137.398438 632.042969 133.753906 627.605469 C 130.109375 623.164062 126.578125 618.640625 123.15625 614.027344 C 119.738281 609.414062 116.429688 604.71875 113.242188 599.945312 C 110.050781 595.171875 106.980469 590.320312 104.027344 585.394531 C 101.074219 580.46875 98.246094 575.472656 95.539062 570.410156 C 92.832031 565.34375 90.25 560.21875 87.792969 555.027344 C 85.339844 549.835938 83.011719 544.585938 80.816406 539.28125 C 78.617188 533.976562 76.550781 528.617188 74.617188 523.210938 C 72.679688 517.804688 70.878906 512.351562 69.214844 506.859375 C 67.546875 501.363281 66.015625 495.828125 64.621094 490.257812 C 63.226562 484.6875 61.96875 479.085938 60.847656 473.453125 C 59.726562 467.824219 58.746094 462.167969 57.902344 456.484375 C 57.058594 450.804688 56.355469 445.109375 55.792969 439.390625 C 55.230469 433.675781 54.808594 427.953125 54.527344 422.214844 C 54.246094 416.480469 54.105469 410.742188 54.105469 405 C 54.105469 399.257812 54.246094 393.515625 54.527344 387.78125 C 54.808594 382.046875 55.230469 376.320312 55.792969 370.605469 C 56.355469 364.890625 57.058594 359.191406 57.902344 353.511719 C 58.746094 347.832031 59.726562 342.175781 60.847656 336.542969 C 61.96875 330.910156 63.226562 325.308594 64.621094 319.738281 C 66.015625 314.167969 67.546875 308.636719 69.214844 303.140625 C 70.878906 297.644531 72.679688 292.191406 74.617188 286.785156 C 76.550781 281.378906 78.617188 276.023438 80.816406 270.71875 C 83.011719 265.410156 85.339844 260.164062 87.792969 254.972656 C 90.25 249.78125 92.832031 244.652344 95.539062 239.589844 C 98.246094 234.523438 101.074219 229.527344 104.027344 224.601562 C 106.980469 219.675781 110.050781 214.828125 113.242188 210.050781 C 116.429688 205.277344 119.738281 200.582031 123.15625 195.972656 C 126.578125 191.359375 130.109375 186.832031 133.753906 182.394531 C 137.398438 177.953125 141.148438 173.609375 145.003906 169.351562 C 148.859375 165.097656 152.816406 160.941406 156.878906 156.878906 C 160.941406 152.816406 165.097656 148.859375 169.351562 145.003906 C 173.609375 141.148438 177.953125 137.398438 182.394531 133.753906 C 186.832031 130.109375 191.359375 126.578125 195.972656 123.15625 C 200.582031 119.738281 205.277344 116.429688 210.050781 113.242188 C 214.828125 110.050781 219.675781 106.980469 224.601562 104.027344 C 229.527344 101.074219 234.523438 98.246094 239.589844 95.539062 C 244.652344 92.832031 249.78125 90.25 254.972656 87.792969 C 260.164062 85.339844 265.410156 83.011719 270.71875 80.816406 C 276.023438 78.617188 281.378906 76.550781 286.785156 74.617188 C 292.191406 72.679688 297.644531 70.878906 303.140625 69.214844 C 308.636719 67.546875 314.167969 66.015625 319.738281 64.621094 C 325.308594 63.226562 330.910156 61.96875 336.542969 60.847656 C 342.175781 59.726562 347.832031 58.746094 353.511719 57.902344 C 359.191406 57.058594 364.890625 56.355469 370.605469 55.792969 C 376.320312 55.230469 382.046875 54.808594 387.78125 54.527344 C 393.515625 54.246094 399.257812 54.105469 405 54.105469 C 410.742188 54.105469 416.480469 54.246094 422.214844 54.527344 C 427.953125 54.808594 433.675781 55.230469 439.390625 55.792969 C 445.109375 56.355469 450.804688 57.058594 456.484375 57.902344 C 462.167969 58.746094 467.824219 59.726562 473.453125 60.847656 C 479.085938 61.96875 484.6875 63.226562 490.257812 64.621094 C 495.828125 66.015625 501.363281 67.546875 506.859375 69.214844 C 512.351562 70.878906 517.804688 72.679688 523.210938 74.617188 C 528.617188 76.550781 533.976562 78.617188 539.28125 80.816406 C 544.585938 83.011719 549.835938 85.339844 555.027344 87.792969 C 560.214844 90.25 565.34375 92.832031 570.410156 95.539062 C 575.472656 98.246094 580.46875 101.074219 585.394531 104.027344 C 590.320312 106.980469 595.171875 110.050781 599.945312 113.242188 C 604.71875 116.429688 609.414062 119.738281 614.027344 123.15625 C 618.640625 126.578125 623.164062 130.109375 627.605469 133.753906 C 632.042969 137.398438 636.390625 141.148438 640.644531 145.003906 C 644.898438 148.859375 649.058594 152.816406 653.117188 156.878906 C 657.179688 160.941406 661.136719 165.097656 664.996094 169.351562 C 668.851562 173.609375 672.601562 177.953125 676.242188 182.394531 C 679.886719 186.832031 683.417969 191.359375 686.839844 195.972656 C 690.261719 200.582031 693.566406 205.277344 696.757812 210.050781 C 699.945312 214.828125 703.019531 219.675781 705.972656 224.601562 C 708.921875 229.527344 711.753906 234.523438 714.460938 239.589844 C 717.167969 244.652344 719.75 249.78125 722.203125 254.972656 C 724.660156 260.164062 726.984375 265.410156 729.183594 270.71875 C 731.378906 276.023438 733.445312 281.378906 735.382812 286.785156 C 737.316406 292.191406 739.117188 297.644531 740.785156 303.140625 C 742.449219 308.636719 743.980469 314.167969 745.378906 319.738281 C 746.773438 325.308594 748.03125 330.910156 749.152344 336.542969 C 750.269531 342.175781 751.253906 347.832031 752.09375 353.511719 C 752.9375 359.191406 753.640625 364.890625 754.203125 370.605469 C 754.765625 376.320312 755.1875 382.046875 755.46875 387.78125 C 755.753906 393.515625 755.894531 399.257812 755.894531 405 Z M 755.894531 405 " fill-opacity="1" fill-rule="nonzero"/></g><path fill="#ffffff" d="M 317.976562 646.976562 L 126.621094 455.632812 L 202.863281 379.382812 L 317.976562 494.476562 L 607.085938 205.339844 L 683.355469 281.574219 Z M 317.976562 646.976562 " fill-opacity="1" fill-rule="nonzero"/></svg>