<svg xmlns="http://www.w3.org/2000/svg" xmlns:xlink="http://www.w3.org/1999/xlink" width="1080" zoomAndPan="magnify" viewBox="0 0 810 809.999993" height="1080" preserveAspectRatio="xMidYMid meet" version="1.0"><defs><clipPath id="58e041d068"><path d="M 54.105469 54.105469 L 756 54.105469 L 756 756 L 54.105469 756 Z M 54.105469 54.105469 " clip-rule="nonzero"/></clipPath></defs><path fill="#721c31" d="M 361.789062 194.011719 L 448.105469 194.011719 L 448.105469 218.277344 L 361.789062 218.277344 Z M 361.789062 194.011719 " fill-opacity="1" fill-rule="nonzero"/><path fill="#721c31" d="M 375.671875 586.886719 L 434.222656 586.886719 L 434.222656 611.148438 L 375.671875 611.148438 Z M 375.671875 586.886719 " fill-opacity="1" fill-rule="nonzero"/><path fill="#721c31" d="M 299.980469 245.472656 L 509.910156 245.472656 L 509.910156 556.984375 L 299.980469 556.984375 Z M 299.980469 245.472656 " fill-opacity="1" fill-rule="nonzero"/><g clip-path="url(#58e041d068)"><path fill="#721c31" d="M 404.9375 53.898438 C 211.203125 53.898438 54.148438 210.960938 54.148438 404.695312 C 54.148438 598.425781 211.203125 755.492188 404.9375 755.492188 C 598.679688 755.492188 755.742188 598.425781 755.742188 404.695312 C 755.742188 210.960938 598.679688 53.898438 404.9375 53.898438 Z M 545.617188 595.113281 C 545.617188 619.363281 520.015625 639.019531 488.457031 639.019531 L 321.4375 639.019531 C 289.867188 639.019531 264.269531 619.363281 264.269531 595.113281 L 264.269531 214.273438 C 264.269531 190.023438 289.867188 170.363281 321.4375 170.363281 L 488.457031 170.363281 C 520.015625 170.363281 545.617188 190.023438 545.617188 214.273438 Z M 545.617188 595.113281 " fill-opacity="1" fill-rule="nonzero"/></g></svg>