<svg xmlns="http://www.w3.org/2000/svg" xmlns:xlink="http://www.w3.org/1999/xlink" width="1080" zoomAndPan="magnify" viewBox="0 0 810 809.999993" height="1080" preserveAspectRatio="xMidYMid meet" version="1.0"><defs><clipPath id="24a20f0d0d"><path d="M 54.105469 54.105469 L 756.105469 54.105469 L 756.105469 756.105469 L 54.105469 756.105469 Z M 54.105469 54.105469 " clip-rule="nonzero"/></clipPath></defs><g clip-path="url(#24a20f0d0d)"><path fill="#ed1d2b" d="M 756.144531 405.140625 C 756.144531 598.996094 598.996094 756.144531 405.140625 756.144531 C 211.285156 756.144531 54.136719 598.996094 54.136719 405.140625 C 54.136719 211.285156 211.285156 54.136719 405.140625 54.136719 C 598.996094 54.136719 756.144531 211.285156 756.144531 405.140625 " fill-opacity="1" fill-rule="nonzero"/></g><path fill="#ffffff" d="M 578.304688 231.980469 C 561.335938 215.011719 533.824219 215.011719 516.859375 231.980469 L 405.140625 343.695312 L 293.421875 231.980469 C 276.457031 215.011719 248.949219 215.011719 231.980469 231.980469 C 215.011719 248.949219 215.011719 276.457031 231.980469 293.421875 L 343.695312 405.140625 L 231.980469 516.859375 C 215.011719 533.824219 215.011719 561.335938 231.980469 578.304688 C 248.949219 595.273438 276.457031 595.273438 293.421875 578.304688 L 405.140625 466.585938 L 516.859375 578.304688 C 533.824219 595.273438 561.335938 595.273438 578.304688 578.304688 C 595.273438 561.335938 595.273438 533.824219 578.304688 516.859375 L 466.589844 405.140625 L 578.304688 293.421875 C 595.273438 276.457031 595.273438 248.949219 578.304688 231.980469 " fill-opacity="1" fill-rule="nonzero"/></svg>