<svg xmlns="http://www.w3.org/2000/svg" xmlns:xlink="http://www.w3.org/1999/xlink" width="1080" zoomAndPan="magnify" viewBox="0 0 810 809.999993" height="1080" preserveAspectRatio="xMidYMid meet" version="1.0"><defs><clipPath id="535579b447"><path d="M 54.105469 54.105469 L 755.894531 54.105469 L 755.894531 755.894531 L 54.105469 755.894531 Z M 54.105469 54.105469 " clip-rule="nonzero"/></clipPath><clipPath id="f5ca60a097"><path d="M 405 54.105469 C 211.207031 54.105469 54.105469 211.207031 54.105469 405 C 54.105469 598.792969 211.207031 755.894531 405 755.894531 C 598.792969 755.894531 755.894531 598.792969 755.894531 405 C 755.894531 211.207031 598.792969 54.105469 405 54.105469 Z M 405 54.105469 " clip-rule="nonzero"/></clipPath><clipPath id="4c528cb959"><path d="M 200 254.027344 L 610 254.027344 L 610 376 L 200 376 Z M 200 254.027344 " clip-rule="nonzero"/></clipPath><clipPath id="41068f58f9"><path d="M 378 502 L 432 502 L 432 555.835938 L 378 555.835938 Z M 378 502 " clip-rule="nonzero"/></clipPath></defs><g clip-path="url(#535579b447)"><g clip-path="url(#f5ca60a097)"><path fill="#721c31" d="M 54.105469 54.105469 L 755.894531 54.105469 L 755.894531 755.894531 L 54.105469 755.894531 Z M 54.105469 54.105469 " fill-opacity="1" fill-rule="nonzero"/></g></g><g clip-path="url(#4c528cb959)"><path fill="#ffffff" d="M 603.183594 336.175781 C 576.421875 309.410156 545.21875 288.683594 510.441406 274.570312 C 476.863281 260.941406 441.394531 254.03125 405.011719 254.03125 C 368.628906 254.03125 333.164062 260.941406 299.582031 274.570312 C 264.8125 288.683594 233.609375 309.410156 206.847656 336.175781 C 197.894531 345.128906 197.894531 359.644531 206.847656 368.597656 C 215.800781 377.550781 230.316406 377.550781 239.269531 368.597656 C 330.660156 277.207031 479.367188 277.207031 570.757812 368.597656 C 575.234375 373.074219 581.101562 375.3125 586.96875 375.3125 C 592.835938 375.3125 598.703125 373.074219 603.179688 368.597656 C 612.132812 359.644531 612.132812 345.128906 603.179688 336.175781 Z M 603.183594 336.175781 " fill-opacity="1" fill-rule="nonzero"/></g><path fill="#ffffff" d="M 404.960938 337.488281 C 351.886719 337.488281 301.964844 358.183594 264.382812 395.757812 C 255.917969 404.222656 255.917969 417.945312 264.382812 426.410156 C 272.847656 434.875 286.570312 434.875 295.035156 426.410156 C 355.648438 365.796875 454.269531 365.796875 514.875 426.410156 C 519.109375 430.640625 524.65625 432.757812 530.203125 432.757812 C 535.75 432.757812 541.296875 430.640625 545.527344 426.410156 C 553.992188 417.945312 553.992188 404.222656 545.527344 395.757812 C 507.953125 358.183594 458.023438 337.488281 404.949219 337.488281 Z M 404.960938 337.488281 " fill-opacity="1" fill-rule="nonzero"/><path fill="#ffffff" d="M 404.960938 415.71875 C 372.691406 415.71875 342.339844 428.296875 319.496094 451.144531 C 311.074219 459.5625 311.074219 473.214844 319.496094 481.636719 C 327.914062 490.054688 341.566406 490.054688 349.988281 481.636719 C 380.300781 451.324219 429.625 451.324219 459.9375 481.636719 C 464.148438 485.847656 469.664062 487.953125 475.183594 487.953125 C 480.703125 487.953125 486.21875 485.847656 490.429688 481.636719 C 498.851562 473.214844 498.851562 459.5625 490.429688 451.144531 C 467.585938 428.296875 437.234375 415.71875 404.960938 415.71875 Z M 404.960938 415.71875 " fill-opacity="1" fill-rule="nonzero"/><g clip-path="url(#41068f58f9)"><path fill="#ffffff" d="M 431.199219 529.277344 C 431.199219 530.148438 431.15625 531.015625 431.074219 531.878906 C 430.988281 532.746094 430.859375 533.605469 430.691406 534.457031 C 430.519531 535.308594 430.308594 536.152344 430.058594 536.984375 C 429.804688 537.816406 429.511719 538.632812 429.179688 539.433594 C 428.847656 540.238281 428.476562 541.023438 428.066406 541.789062 C 427.65625 542.554688 427.210938 543.300781 426.726562 544.023438 C 426.246094 544.746094 425.726562 545.441406 425.175781 546.113281 C 424.625 546.785156 424.042969 547.429688 423.425781 548.042969 C 422.8125 548.660156 422.167969 549.242188 421.496094 549.792969 C 420.824219 550.34375 420.128906 550.863281 419.40625 551.34375 C 418.683594 551.828125 417.9375 552.273438 417.171875 552.683594 C 416.40625 553.09375 415.621094 553.464844 414.816406 553.796875 C 414.015625 554.128906 413.199219 554.421875 412.367188 554.675781 C 411.535156 554.925781 410.691406 555.136719 409.839844 555.308594 C 408.988281 555.476562 408.128906 555.605469 407.261719 555.6875 C 406.398438 555.773438 405.53125 555.816406 404.664062 555.816406 C 403.792969 555.816406 402.925781 555.773438 402.0625 555.6875 C 401.195312 555.605469 400.335938 555.476562 399.484375 555.308594 C 398.632812 555.136719 397.789062 554.925781 396.957031 554.675781 C 396.128906 554.421875 395.308594 554.128906 394.507812 553.796875 C 393.703125 553.464844 392.917969 553.09375 392.152344 552.683594 C 391.386719 552.273438 390.640625 551.828125 389.917969 551.34375 C 389.195312 550.863281 388.5 550.34375 387.828125 549.792969 C 387.15625 549.242188 386.511719 548.660156 385.898438 548.042969 C 385.28125 547.429688 384.699219 546.785156 384.148438 546.113281 C 383.597656 545.441406 383.078125 544.746094 382.597656 544.023438 C 382.113281 543.300781 381.667969 542.554688 381.257812 541.789062 C 380.847656 541.023438 380.476562 540.238281 380.144531 539.433594 C 379.8125 538.632812 379.519531 537.816406 379.265625 536.984375 C 379.015625 536.152344 378.804688 535.308594 378.632812 534.457031 C 378.464844 533.605469 378.335938 532.746094 378.253906 531.878906 C 378.167969 531.015625 378.125 530.148438 378.125 529.277344 C 378.125 528.410156 378.167969 527.542969 378.253906 526.679688 C 378.335938 525.8125 378.464844 524.953125 378.632812 524.101562 C 378.804688 523.25 379.015625 522.40625 379.265625 521.574219 C 379.519531 520.742188 379.8125 519.925781 380.144531 519.125 C 380.476562 518.320312 380.847656 517.535156 381.257812 516.769531 C 381.667969 516.003906 382.113281 515.257812 382.597656 514.535156 C 383.078125 513.8125 383.597656 513.117188 384.148438 512.445312 C 384.699219 511.773438 385.28125 511.128906 385.898438 510.515625 C 386.511719 509.898438 387.15625 509.316406 387.828125 508.765625 C 388.5 508.214844 389.195312 507.695312 389.917969 507.214844 C 390.640625 506.730469 391.386719 506.285156 392.152344 505.875 C 392.917969 505.464844 393.703125 505.09375 394.507812 504.761719 C 395.308594 504.429688 396.128906 504.136719 396.957031 503.882812 C 397.789062 503.632812 398.632812 503.421875 399.484375 503.25 C 400.335938 503.082031 401.195312 502.953125 402.0625 502.871094 C 402.925781 502.785156 403.792969 502.742188 404.664062 502.742188 C 405.53125 502.742188 406.398438 502.785156 407.261719 502.871094 C 408.128906 502.953125 408.988281 503.082031 409.839844 503.25 C 410.691406 503.421875 411.535156 503.632812 412.367188 503.882812 C 413.199219 504.136719 414.015625 504.429688 414.816406 504.761719 C 415.621094 505.09375 416.40625 505.464844 417.171875 505.875 C 417.9375 506.285156 418.683594 506.730469 419.40625 507.214844 C 420.128906 507.695312 420.824219 508.214844 421.496094 508.765625 C 422.167969 509.316406 422.8125 509.898438 423.425781 510.515625 C 424.042969 511.128906 424.625 511.773438 425.175781 512.445312 C 425.726562 513.117188 426.246094 513.8125 426.726562 514.535156 C 427.210938 515.257812 427.65625 516.003906 428.066406 516.769531 C 428.476562 517.535156 428.847656 518.320312 429.179688 519.125 C 429.511719 519.925781 429.804688 520.742188 430.058594 521.574219 C 430.308594 522.40625 430.519531 523.25 430.691406 524.101562 C 430.859375 524.953125 430.988281 525.8125 431.074219 526.679688 C 431.15625 527.542969 431.199219 528.410156 431.199219 529.277344 Z M 431.199219 529.277344 " fill-opacity="1" fill-rule="nonzero"/></g></svg>